<?xml version="1.0" standalone="no"?>
<!DOCTYPE svg PUBLIC "-//W3C//DTD SVG 20010904//EN"
 "http://www.w3.org/TR/2001/REC-SVG-20010904/DTD/svg10.dtd">
<svg version="1.0" xmlns="http://www.w3.org/2000/svg"
 width="570.000000pt" height="570.000000pt" viewBox="0 0 570.000000 570.000000"
 preserveAspectRatio="xMidYMid meet">
<metadata>
Created by potrace 1.11, written by Peter Selinger 2001-2013
</metadata>
<g transform="translate(0.000000,570.000000) scale(0.100000,-0.100000)"
fill="#000000" stroke="none">
<path d="M0 4160 l0 -1540 43 -2 42 -1 -45 -7 -45 -6 45 -5 45 -6 -42 -1 c-31
-1 -43 -6 -43 -17 0 -12 17 -15 83 -17 l82 -2 -85 -6 -85 -6 77 -2 c98 -3 108
2 108 44 l0 34 69 0 70 0 6 48 c3 26 7 54 8 62 2 11 19 16 72 18 59 3 72 0 85
-16 17 -20 60 -24 72 -7 4 6 8 42 8 82 l0 72 63 -2 62 -2 0 -33 c0 -24 4 -32
15 -30 11 2 14 14 12 42 -3 32 -1 37 15 34 10 -2 19 -13 21 -26 2 -12 8 -22
13 -22 19 0 8 -19 -13 -23 -19 -4 -18 -5 7 -7 l30 -2 -30 -8 -30 -8 30 -1 c17
0 36 4 43 11 8 8 14 5 22 -16 5 -15 10 -31 10 -35 0 -4 11 -13 24 -19 21 -9
24 -15 17 -39 -9 -30 9 -177 31 -257 8 -31 20 -51 30 -54 10 -2 19 -12 19 -21
2 -26 4 -34 22 -73 9 -21 17 -51 17 -69 0 -22 5 -32 20 -36 21 -6 35 -36 25
-53 -3 -5 -15 -10 -26 -10 -10 0 -19 -4 -19 -10 0 -5 -9 -10 -19 -10 -17 0
-19 -5 -14 -38 3 -20 9 -39 12 -42 24 -19 82 -124 78 -141 -3 -10 -1 -19 5
-19 5 0 6 -5 3 -10 -3 -6 6 -15 20 -20 15 -6 33 -17 41 -25 9 -8 29 -15 45
-15 16 0 29 -4 29 -8 0 -5 17 -18 37 -29 21 -12 51 -35 67 -52 27 -28 40 -34
105 -46 60 -11 93 -27 88 -44 -3 -14 4 -16 55 -13 46 3 64 0 79 -14 26 -23 24
-31 -12 -50 -33 -16 -99 -12 -99 6 0 15 -26 12 -40 -5 -7 -8 -19 -15 -27 -15
-7 0 -25 -8 -39 -17 -24 -15 -25 -18 -9 -29 12 -9 16 -20 11 -38 -5 -19 -2
-26 9 -26 19 0 19 -17 -1 -37 -11 -11 -14 -26 -10 -49 6 -30 4 -33 -24 -38
-16 -3 -45 -9 -62 -13 -18 -4 -37 -6 -41 -5 -5 2 -11 -7 -14 -18 -3 -11 -11
-20 -18 -20 -25 0 -28 -39 -5 -63 21 -22 24 -22 103 -10 124 18 122 19 137
-26 14 -45 32 -56 61 -40 11 6 47 15 80 20 33 5 68 13 77 18 52 26 71 33 93
30 13 -1 37 3 52 9 15 7 39 15 53 18 14 4 22 9 19 12 -7 8 63 42 86 42 10 0
29 -21 47 -52 16 -29 46 -74 65 -100 69 -90 196 -313 184 -324 -3 -3 -37 17
-75 45 -39 28 -86 58 -106 66 -34 15 -76 74 -76 108 0 20 -78 135 -98 145 -18
9 -58 3 -82 -13 -22 -14 -41 -63 -35 -88 5 -19 45 -47 67 -47 5 0 26 -12 48
-26 22 -15 44 -23 51 -18 7 4 10 3 6 -2 -7 -13 -120 -69 -192 -96 -33 -12 -69
-28 -80 -34 -11 -7 -52 -22 -91 -33 -39 -12 -82 -29 -95 -40 -13 -10 -35 -22
-49 -26 -80 -25 -225 -107 -312 -175 -67 -53 -111 -81 -145 -90 -59 -16 -73
-26 -73 -54 0 -32 -37 -78 -115 -143 -116 -96 -173 -154 -195 -195 -11 -21
-20 -41 -20 -43 0 -3 479 -5 1064 -5 842 0 1066 3 1070 13 5 9 7 9 12 0 6 -13
154 -19 154 -7 0 5 -72 152 -156 317 -8 16 -14 35 -14 43 0 8 -6 14 -12 14 -7
0 -31 16 -53 36 -22 20 -69 55 -105 80 -78 52 -228 189 -218 199 4 4 37 -5 75
-20 l68 -27 135 10 c74 6 147 14 162 18 19 4 32 0 47 -15 15 -15 26 -18 42
-13 25 9 95 102 135 177 35 67 53 85 81 85 13 0 26 7 29 15 3 8 24 20 46 27
41 12 93 68 70 76 -7 2 -20 11 -28 20 -20 19 -75 50 -89 48 -26 -3 -12 43 35
114 94 143 187 212 375 279 337 121 406 203 527 626 22 77 47 173 56 214 10
41 22 76 29 78 28 10 36 -41 34 -217 -3 -216 19 -467 40 -455 4 3 22 34 39 68
49 97 54 100 130 94 70 -5 167 -44 229 -91 25 -19 47 -26 77 -26 24 0 79 -12
123 -26 l80 -26 28 26 c15 14 33 26 40 26 7 0 13 11 13 25 0 14 4 25 9 25 18
0 30 58 19 97 -5 21 -13 42 -17 46 -9 9 -61 -12 -61 -25 0 -4 -10 -8 -23 -8
-16 0 -33 14 -55 44 -36 50 -38 56 -16 56 8 0 13 3 10 8 -2 4 13 25 35 47 35
34 39 44 39 87 0 27 -6 59 -14 71 -23 37 -29 77 -11 77 8 0 15 6 15 13 0 6 28
26 62 42 43 21 67 40 78 61 25 49 45 64 84 64 22 0 36 5 36 13 1 29 80 94 80
65 0 -9 4 -8 15 2 11 12 12 24 5 55 -12 54 -63 88 -75 50 -17 -52 -16 -51 -25
-34 -5 8 -5 31 -1 51 8 34 -8 91 -30 108 -3 3 -9 12 -12 20 -4 12 -6 11 -6 -2
-1 -24 -21 -23 -21 0 0 14 -9 19 -42 20 -29 2 -49 9 -60 22 -9 11 -23 20 -32
20 -9 0 -16 5 -16 10 0 6 5 10 10 10 6 0 16 12 23 28 6 15 17 32 23 39 13 14
107 30 142 25 22 -3 30 -26 12 -37 -5 -3 -10 -22 -10 -41 0 -19 5 -34 10 -34
6 0 10 9 10 21 0 26 21 20 36 -9 17 -34 21 -35 44 -12 12 12 28 19 36 16 9 -3
12 -2 9 5 -4 6 2 13 14 16 12 3 21 13 21 22 0 9 7 27 16 39 13 19 25 22 82 24
64 1 65 1 22 8 l-45 7 44 1 c42 2 43 3 37 30 -3 15 -3 22 0 17 2 -6 20 -9 40
-7 25 3 34 8 30 19 -11 27 17 53 56 53 36 0 38 -2 38 -30 0 -16 5 -30 10 -30
7 0 10 442 10 1305 l0 1305 -2850 0 -2850 0 0 -1540z m2005 1269 c101 -11 258
-56 353 -100 35 -16 65 -29 66 -29 2 0 49 -25 105 -56 99 -53 104 -55 139 -43
47 16 134 20 149 7 8 -6 19 -6 33 2 25 13 124 9 185 -8 22 -7 76 -12 120 -12
49 0 107 -8 150 -20 38 -11 92 -20 118 -20 53 0 84 -12 107 -43 48 -62 87 -99
126 -116 23 -11 100 -58 171 -104 120 -80 161 -117 308 -280 6 -7 31 -39 55
-72 25 -33 47 -62 50 -65 47 -42 136 -265 162 -403 11 -62 24 -132 29 -157 28
-142 37 -260 19 -260 -13 0 -60 83 -60 106 0 23 -101 223 -139 276 -14 20 -66
85 -115 143 -69 81 -94 104 -108 99 -35 -11 -264 83 -403 166 -22 13 -54 31
-71 40 -16 9 -45 27 -64 40 -19 14 -53 36 -76 50 -179 106 -222 132 -314 194
-495 330 -613 403 -683 420 -15 4 -25 11 -22 16 3 5 -1 7 -9 4 -8 -3 -36 4
-63 16 -301 134 -587 133 -833 -3 -173 -96 -315 -256 -409 -459 -39 -84 -91
-241 -91 -274 0 -9 -8 -26 -17 -36 -9 -10 -20 -43 -24 -74 -4 -31 -10 -58 -13
-62 -4 -3 -15 4 -26 16 -22 24 -27 97 -11 161 5 20 17 68 26 106 28 115 71
239 99 283 14 23 23 42 19 42 -5 0 0 5 10 11 9 5 17 17 17 24 0 8 5 15 10 15
6 0 14 8 17 18 16 41 168 198 258 264 157 116 301 165 545 187 8 0 56 -4 105
-10z m1375 -1109 c0 -5 -5 -10 -11 -10 -5 0 -7 5 -4 10 3 6 8 10 11 10 2 0 4
-4 4 -10z m-1055 -284 c27 -17 49 -23 67 -19 33 6 37 -7 8 -25 -11 -7 -20 -18
-20 -26 0 -31 -102 -100 -160 -109 -11 -2 -26 -9 -32 -15 -18 -18 -98 -15
-119 4 -20 18 -99 36 -99 23 0 -5 -11 -9 -25 -9 -39 0 -31 29 25 92 60 67 105
91 190 99 113 10 124 9 165 -15z m1347 -75 c59 -42 108 -82 108 -90 0 -9 -6
-11 -17 -6 -10 4 -54 9 -99 12 -72 5 -92 2 -178 -26 -54 -17 -99 -31 -101 -31
-1 0 -3 42 -4 94 -1 67 2 97 11 103 20 12 130 31 153 25 11 -2 68 -39 127 -81z
m-483 62 c7 -13 22 -18 58 -18 l48 0 3 -37 c6 -68 -7 -73 -68 -29 -85 61 -93
70 -79 87 15 19 26 18 38 -3z m-679 -52 c0 -4 -10 -21 -22 -36 -21 -27 -21
-29 -3 -39 10 -6 26 -19 36 -28 17 -16 19 -16 27 -1 8 14 14 14 63 -5 l53 -20
-34 -21 c-24 -15 -44 -20 -66 -16 -26 5 -59 -2 -114 -22 -8 -4 -22 -7 -30 -7
-26 -2 0 -84 34 -108 6 -4 7 -10 3 -14 -4 -4 3 -18 15 -31 12 -13 18 -23 14
-23 -4 0 1 -13 11 -30 9 -16 23 -30 30 -30 8 0 16 -7 19 -15 10 -24 24 -17 24
11 0 37 -24 82 -73 139 -51 59 -67 91 -40 80 27 -11 194 -22 199 -13 3 5 12 8
20 8 11 0 13 -6 9 -21 -8 -24 -11 -24 78 7 26 9 47 22 47 30 0 18 73 59 139
78 110 32 196 13 280 -62 l33 -31 -20 -28 c-37 -52 -77 -82 -154 -118 -83 -38
-268 -94 -396 -120 -79 -16 -82 -16 -129 5 -80 35 -125 93 -157 199 -9 30 -22
58 -29 63 -8 6 -9 10 -1 16 6 4 16 28 22 54 13 51 80 157 100 158 6 0 12 -4
12 -9z m765 -122 c12 -19 -5 -23 -22 -6 -16 16 -16 17 -1 17 9 0 20 -5 23 -11z
m545 -155 l105 -39 26 -54 c22 -45 25 -59 16 -86 -8 -27 -7 -37 6 -49 21 -21
30 -87 23 -165 l-6 -64 20 23 c23 26 30 16 29 -40 0 -19 2 -48 4 -65 3 -16 7
-47 11 -68 3 -21 9 -43 13 -50 4 -6 8 -16 9 -22 6 -42 38 -134 45 -130 11 7
29 -28 29 -57 0 -13 7 -31 14 -41 26 -34 29 108 9 368 -14 168 -5 241 28 254
10 3 29 26 41 50 20 38 35 50 108 88 46 23 88 43 92 43 18 0 5 -26 -38 -79
-48 -57 -98 -154 -91 -175 2 -6 21 16 42 49 51 82 84 115 113 115 27 0 86 -25
121 -52 31 -23 36 -17 18 19 -19 36 -70 84 -105 99 l-27 12 28 11 c17 6 35 7
50 2 41 -17 133 -129 165 -204 22 -50 15 -187 -13 -277 -26 -79 -85 -206 -115
-245 -42 -55 -112 -111 -180 -145 -78 -39 -187 -73 -217 -68 -14 3 -20 -15
-35 -102 -22 -126 -22 -128 -35 -160 -6 -14 -12 -30 -14 -35 -14 -36 -73 -135
-81 -135 -5 0 -21 -11 -36 -25 -15 -14 -35 -25 -45 -25 -10 0 -47 -13 -81 -29
-34 -16 -78 -32 -97 -36 -19 -4 -51 -16 -71 -26 -21 -11 -46 -19 -58 -19 -11
0 -39 -12 -61 -26 -23 -14 -58 -32 -78 -39 -20 -7 -74 -30 -121 -52 -47 -22
-92 -43 -100 -47 -8 -3 -22 -10 -30 -15 -35 -21 -200 -96 -294 -133 -105 -42
-160 -51 -382 -64 -69 -5 -108 -3 -123 5 -12 7 -68 16 -124 21 -56 5 -113 12
-127 16 -32 8 -73 53 -100 109 -24 50 -37 139 -22 149 7 4 7 17 0 40 -8 26
-15 32 -30 28 -13 -3 -28 4 -44 22 -14 14 -29 26 -34 26 -18 0 -40 32 -40 60
0 16 -6 30 -12 32 -7 3 -21 42 -31 89 -45 207 -57 259 -80 344 -14 50 -32 103
-40 119 -10 19 -13 43 -10 70 8 56 7 79 -2 162 -8 70 -7 71 21 91 16 11 73 41
127 67 75 36 103 55 115 78 9 17 41 63 70 103 28 40 70 112 91 159 35 76 39
89 30 121 -12 43 -6 56 11 26 l11 -22 26 21 c29 23 62 26 84 8 9 -7 39 -44 69
-83 61 -81 113 -132 118 -117 2 6 16 7 38 2 70 -16 281 29 494 105 108 39 198
85 226 116 51 57 183 90 334 85 81 -3 111 -9 200 -42z m-1727 -51 c8 -48 -3
-59 -42 -38 -67 34 -201 13 -272 -44 -46 -38 -51 -38 -43 -3 10 45 33 89 49
96 9 3 55 3 103 0 74 -6 89 -4 101 10 9 10 29 16 56 16 41 0 43 -1 48 -37z
m-559 -58 c-4 -8 -12 -15 -20 -15 -8 0 -14 -5 -14 -12 0 -19 -42 -58 -62 -58
-18 0 -18 1 -2 26 17 24 80 74 96 74 4 0 5 -7 2 -15z m980 -1 c5 -14 4 -15 -9
-4 -17 14 -19 20 -6 20 5 0 12 -7 15 -16z m-860 -84 c4 0 4 5 1 10 -3 6 -2 10
4 10 14 0 27 -23 15 -27 -6 -2 -9 -18 -8 -36 2 -17 -1 -46 -6 -64 -6 -23 -4
-37 8 -54 12 -17 12 -20 1 -14 -38 22 -109 89 -109 102 0 9 5 11 13 7 9 -6 9
-5 0 7 -17 21 4 69 30 69 9 0 17 6 17 13 1 7 6 5 14 -5 7 -10 16 -18 20 -18z
m-100 5 c3 -8 1 -15 -4 -15 -6 0 -10 7 -10 15 0 8 2 15 4 15 2 0 6 -7 10 -15z
m478 -31 c20 3 39 2 42 -3 9 -15 -31 -141 -56 -176 -13 -19 -35 -43 -49 -54
-38 -30 -164 -91 -188 -91 -17 0 -18 3 -8 23 14 26 111 123 151 150 14 10 26
22 26 26 0 4 -28 9 -62 10 -35 1 -66 5 -70 9 -9 9 45 53 90 73 18 8 32 21 32
31 0 15 4 16 28 7 15 -6 44 -8 64 -5z m-598 -50 c3 -9 7 -34 7 -57 l2 -42 6
42 c10 56 17 62 25 18 4 -19 11 -35 16 -35 4 0 11 -12 15 -27 4 -17 33 -50 74
-84 47 -39 70 -67 78 -92 13 -44 6 -52 -58 -66 -85 -19 -134 10 -180 107 -29
60 -32 75 -31 150 1 46 4 88 8 93 9 14 31 10 38 -7z m-886 -571 c-10 -2 -28
-2 -40 0 -13 2 -5 4 17 4 22 1 32 -1 23 -4z m9 -55 c-3 -8 -6 -5 -6 6 -1 11 2
17 5 13 3 -3 4 -12 1 -19z m-397 -98 c0 -5 -17 -10 -37 -10 -28 0 -34 3 -23
10 20 13 60 13 60 0z m5047 -112 c-3 -8 -6 -5 -6 6 -1 11 2 17 5 13 3 -3 4
-12 1 -19z m-14 -25 c-7 -2 -21 -2 -30 0 -10 3 -4 5 12 5 17 0 24 -2 18 -5z
m-3447 -476 c4 -4 2 -7 -5 -7 -7 0 -9 -4 -6 -10 9 -15 -51 -12 -64 3 -6 8 -9
16 -6 19 7 7 73 3 81 -5z m209 -713 c-23 -17 -56 -15 -63 4 -2 8 9 12 40 12
40 -1 42 -2 23 -16z m199 -22 l35 -19 -19 -28 c-25 -39 -60 -52 -60 -24 0 13
-4 18 -12 13 -7 -4 -10 -3 -5 1 4 5 0 19 -8 32 -29 44 8 57 69 25z m64 -1030
c2 -7 -2 -10 -12 -6 -9 3 -16 11 -16 16 0 13 23 5 28 -10z m380 -144 c-7 -19
-38 -22 -38 -4 0 10 9 16 21 16 12 0 19 -5 17 -12z m27 -38 c-3 -5 -11 -10
-16 -10 -6 0 -7 5 -4 10 3 6 11 10 16 10 6 0 7 -4 4 -10z m30 -19 c3 -5 1 -12
-5 -16 -5 -3 -10 1 -10 9 0 18 6 21 15 7z m35 -31 c0 -5 -4 -10 -10 -10 -5 0
-10 5 -10 10 0 6 5 10 10 10 6 0 10 -4 10 -10z m26 -37 c-10 -10 -19 5 -10 18
6 11 8 11 12 0 2 -7 1 -15 -2 -18z m44 -11 c0 -13 -12 -22 -22 -16 -10 6 -1
24 13 24 5 0 9 -4 9 -8z"/>
<path d="M2714 5165 c-7 -18 3 -35 21 -35 18 0 26 25 12 39 -15 15 -27 14 -33
-4z"/>
<path d="M3181 5151 c-8 -5 -16 -20 -18 -32 -2 -13 -9 -26 -15 -30 -12 -8 -4
-39 11 -39 9 0 27 45 36 89 4 24 5 24 -14 12z"/>
<path d="M3270 5090 c0 -35 -5 -52 -16 -58 -9 -5 -14 -14 -10 -21 11 -18 20
-13 39 22 14 26 16 39 8 60 -7 19 -7 27 0 27 6 0 7 5 4 10 -14 23 -25 7 -25
-40z"/>
<path d="M3350 5100 c0 -5 5 -10 11 -10 5 0 7 5 4 10 -3 6 -8 10 -11 10 -2 0
-4 -4 -4 -10z"/>
<path d="M2841 3744 c0 -11 3 -14 6 -6 3 7 2 16 -1 19 -3 4 -6 -2 -5 -13z"/>
<path d="M2752 3704 c-8 -9 -6 -13 10 -17 20 -6 68 7 68 18 0 4 -4 3 -10 0 -5
-3 -10 -2 -10 2 0 13 -45 11 -58 -3z"/>
<path d="M3264 3395 c-18 -14 -18 -14 4 -8 12 3 22 9 22 14 0 12 -3 11 -26 -6z"/>
<path d="M2610 3359 c0 -16 27 -46 35 -38 2 2 -5 15 -15 29 -15 19 -20 21 -20
9z"/>
<path d="M4290 3228 c0 -49 6 -60 37 -77 39 -20 72 -14 79 16 9 34 -4 53 -52
80 -57 31 -64 29 -64 -19z"/>
<path d="M2325 3112 c-53 -25 -67 -28 -115 -22 -30 4 -69 13 -87 19 -17 7 -44
11 -60 9 -23 -2 -29 -9 -31 -32 -2 -16 -19 -48 -38 -71 -19 -23 -34 -50 -34
-59 0 -23 28 -89 42 -97 8 -5 8 -23 -1 -66 -13 -66 -4 -116 23 -121 20 -4 87
48 176 137 36 37 92 87 124 114 52 42 64 47 107 47 27 0 66 -7 86 -15 73 -31
183 -11 218 39 18 25 21 66 4 49 -13 -13 -28 -8 -145 49 -111 55 -184 60 -269
20z"/>
<path d="M2835 2644 c-17 -17 -23 -17 -168 2 -40 6 -50 4 -62 -12 -21 -28 -19
-31 28 -38 23 -3 72 -14 109 -23 55 -14 74 -14 107 -5 70 21 91 59 46 80 -34
16 -40 15 -60 -4z"/>
<path d="M2093 2527 c-54 -57 -67 -93 -53 -145 6 -23 15 -44 21 -48 16 -9 41
20 45 52 1 15 8 37 14 49 11 20 74 64 135 95 16 8 30 19 30 25 0 17 -38 18
-50 2 -10 -14 -17 -14 -57 -2 l-46 13 -39 -41z"/>
<path d="M2271 2351 c-23 -6 -23 -7 -7 -24 10 -9 26 -22 37 -27 17 -10 19 -7
19 25 0 36 -5 39 -49 26z"/>
<path d="M2116 2283 c5 -34 4 -36 -9 -20 -20 24 -36 21 -43 -7 -8 -33 -2 -57
18 -69 25 -16 67 29 66 71 -1 17 5 38 12 47 11 13 8 15 -18 15 -30 0 -31 -1
-26 -37z"/>
<path d="M2277 2223 c-4 -3 -7 -11 -7 -17 0 -6 5 -5 12 2 6 6 9 14 7 17 -3 3
-9 2 -12 -2z"/>
<path d="M2310 2216 c0 -2 7 -9 15 -16 9 -7 15 -8 15 -2 0 5 -7 12 -15 16 -8
3 -15 4 -15 2z"/>
<path d="M5458 3003 c12 -2 32 -2 45 0 12 2 2 4 -23 4 -25 0 -35 -2 -22 -4z"/>
<path d="M5301 2834 c0 -11 3 -14 6 -6 3 7 2 16 -1 19 -3 4 -6 -2 -5 -13z"/>
<path d="M258 2603 c12 -2 32 -2 45 0 12 2 2 4 -23 4 -25 0 -35 -2 -22 -4z"/>
<path d="M37 2523 c24 -2 62 -2 85 0 24 2 5 4 -42 4 -47 0 -66 -2 -43 -4z"/>
<path d="M4325 1647 c-8 -20 -15 -39 -15 -42 0 -4 -7 -14 -16 -22 -9 -9 -13
-25 -10 -37 2 -12 10 -42 16 -69 6 -26 20 -53 29 -60 23 -15 33 -62 35 -150 1
-56 4 -67 18 -67 12 0 20 12 26 38 13 51 32 226 32 285 0 53 -23 117 -41 117
-7 0 -23 10 -36 22 l-23 21 -15 -36z"/>
<path d="M1357 1459 c7 -7 15 -10 18 -7 3 3 -2 9 -12 12 -14 6 -15 5 -6 -5z"/>
<path d="M1275 1441 c-45 -7 -62 -38 -26 -48 12 -3 21 -8 21 -12 0 -10 64 -7
72 4 4 5 8 22 8 38 0 29 -1 29 -75 18z"/>
<path d="M5242 1146 c-38 -45 -149 -81 -267 -89 -51 -3 -88 -13 -135 -36 -72
-34 -100 -39 -100 -16 0 20 -13 19 -95 -10 -100 -35 -145 -33 -124 6 8 17 7
18 -13 10 -13 -5 -41 -14 -63 -21 -51 -16 -91 -53 -175 -165 -37 -49 -93 -117
-124 -150 -31 -33 -67 -79 -81 -101 -30 -50 -149 -174 -230 -239 -87 -70 -125
-113 -125 -144 0 -14 -10 -37 -22 -51 -13 -14 -30 -38 -38 -55 -8 -16 -23 -42
-33 -57 l-18 -28 265 0 265 0 17 33 c21 40 74 107 86 107 13 0 9 -27 -7 -44
-8 -8 -15 -21 -15 -28 0 -7 -7 -25 -14 -40 l-15 -28 177 0 177 0 45 36 c25 20
49 42 53 50 4 8 15 14 24 14 9 0 24 7 34 16 17 15 18 14 25 -22 4 -23 3 -39
-3 -41 -6 -2 -25 -15 -43 -28 l-34 -25 161 0 c143 0 162 2 165 17 3 16 4 16
20 0 15 -15 52 -17 367 -17 l351 0 0 524 0 525 -57 21 c-32 12 -85 28 -118 36
-33 8 -82 20 -110 28 -27 8 -67 17 -88 21 -21 3 -44 8 -51 11 -6 2 -22 -7 -34
-20z m-342 -940 c0 -11 -19 -15 -25 -6 -3 5 1 10 9 10 9 0 16 -2 16 -4z m210
-10 c0 -8 4 -16 9 -18 5 -1 12 -20 16 -40 7 -35 5 -38 -16 -38 -13 0 -35 3
-48 7 -21 5 -22 10 -17 47 4 22 12 44 19 48 19 12 37 9 37 -6z m-262 -55 c3
-8 -1 -12 -9 -9 -7 2 -15 10 -17 17 -3 8 1 12 9 9 7 -2 15 -10 17 -17z m232
-51 c0 -5 -4 -10 -10 -10 -5 0 -10 5 -10 10 0 6 5 10 10 10 6 0 10 -4 10 -10z"/>
<path d="M1045 1093 c-11 -2 -56 -11 -100 -19 -82 -16 -105 -27 -105 -49 0
-36 221 -62 262 -32 55 42 13 115 -57 100z"/>
<path d="M4586 1051 c-7 -10 60 -25 74 -16 6 3 10 10 10 16 0 12 -77 12 -84 0z"/>
<path d="M3032 23 c4 -22 38 -30 38 -10 0 8 -7 18 -16 21 -23 9 -26 8 -22 -11z"/>
</g>
</svg>
